<?xml version="1.0" encoding="utf-8"?>
<!-- Generator: Adobe Illustrator 22.1.0, SVG Export Plug-In . SVG Version: 6.00 Build 0)  -->
<svg version="1.1" id="Layer_1" xmlns="http://www.w3.org/2000/svg" xmlns:xlink="http://www.w3.org/1999/xlink" x="0px" y="0px"
	 viewBox="0 0 600 600" style="enable-background:new 0 0 600 600;" xml:space="preserve">
<style type="text/css">
	.st0{fill-rule:evenodd;clip-rule:evenodd;fill:url(#SVGID_1_);}
	.st1{fill:#FFFFFF;stroke:#FFFFFF;stroke-miterlimit:10;}
	.st2{fill:#FFFFFF;}
</style>
<g>
	<linearGradient id="SVGID_1_" gradientUnits="userSpaceOnUse" x1="295.9619" y1="3.3791" x2="295.9619" y2="519.2087">
		<stop  offset="0" style="stop-color:#FFFF25"/>
		<stop  offset="6.114669e-02" style="stop-color:#FFE816"/>
		<stop  offset="0.1314" style="stop-color:#FED50B"/>
		<stop  offset="0.2038" style="stop-color:#FECA03"/>
		<stop  offset="0.2809" style="stop-color:#FEC601"/>
		<stop  offset="0.6685" style="stop-color:#FB7B1E"/>
		<stop  offset="0.8876" style="stop-color:#F9441B"/>
		<stop  offset="1" style="stop-color:#F71818"/>
	</linearGradient>
	<path class="st0" d="M550.3,219.7c-10.4-64.8-41.8-118.4-93.1-159.4C401,15.3,336.3-3.1,264.9,5.4c-64.1,7.6-118.4,36-161.2,84.4
		C52.6,147.5,31.2,215.5,40,292c7.3,63.9,35.2,118.4,83.7,160.8c71.4,62.4,153.6,80.4,245.2,56c6.8-1.8,7.8-5,7.2-11.2
		c-2.4-21.3-4.3-42.7-5.4-64.1c-1.3-24.7-6.7-48.4-18.7-70.2c-17.5-31.7-44.4-53.2-76.2-69.2c-25.2-12.6-51.9-21.7-77.9-32.4
		c-23.5-9.7-47.2-18.9-66.6-36C110,206.8,99.1,183,96.5,153.4c2.9,3.4,4.8,5.6,6.6,7.8c7.7,9.2,16.2,17.7,25.4,25.5
		c29.1,24.4,63.1,39.9,98.4,52.3c41.9,14.8,82.3,32.6,118.8,58.5c29.1,20.6,56.9,42.7,78.2,71.8c4,5.5,7.8,11.2,11.7,16.9
		c2-1.8,1.4-3.5,1.4-5c0.4-19-5.4-36.4-15.3-52.4c-8.3-13.4-18.4-25.4-27.7-38c-32.8-44.4-63.5-90.2-86.1-140.8
		c-9.1-20.3-16.7-40.9-16.7-63.7c0-20.9,9.4-35.5,28.2-43.6c26.5-11.5,53.1-9.5,79.2,2c10.3,4.5,20.2,10.7,25,20.9
		c7.8,16.5,20.9,27.1,35.4,36.9c10.5,7.1,20.6,14.7,29.3,25.6c-11.9-2.7-22-6.9-32-11.7c-22.5-10.7-44.6-22.2-68.2-30.3
		c-14.9-5.1-29.9-9.4-45.9-9.2c-15.7,0.3-23.6,8.7-23.1,24.5c0.2,4.7,1.2,9.1,2.5,13.6c10.6,35.3,30.9,64.8,55,91.9
		c32.1,36.1,66.6,69.8,102.5,102.2c23.4,21.1,31.7,48.5,27.8,79.7c-1.2,9.7-4.5,18.8-7.9,29.9c2.3-2.1,3-2.6,3.6-3.3
		C545.3,356.6,561.8,291.3,550.3,219.7z M346.9,476c-13-5.1-24.7-9.3-37.2-11.3c-16.5-2.7-33.1-2.9-49.6-1.9
		c-19.6,1.2-39.1,3.1-58.7,2.2c-24.3-1.2-47-6.8-63.5-26.8c-3.7-4.5-6.8-9.2-10.3-16.4c13.6,7.6,26.2,12.3,39.7,14.3
		c25.3,3.7,50.6,1.4,76,0.7c14.7-0.4,29.4-3.3,44.2-1.6C313.8,438,331.8,453.4,346.9,476z M304.9,417.8c-16.2-8-33.1-13.6-50.9-16.7
		c-19.6-3.4-39.4-4.2-59.2-5.4c-28.3-1.7-56.7-3.2-83.5-14c-18.6-7.4-33.1-19.8-43.1-37.3c-0.8-1.4-1.7-2.8-2.2-4.3
		c-0.5-1.5-0.9-3.5,0.4-4.6c1.6-1.4,2.9,0.5,4.1,1.4c24.9,19.5,54.5,24.7,84.7,28.3c28.6,3.4,57.6,3.3,86.2,6.8
		C270.7,375.6,291.1,392,304.9,417.8z M165.8,289c17.3,3.7,34.9,6.3,52,11.1c32.3,9,53.6,30,65.6,61c-1.7,1.1-2.5-0.1-3.3-0.7
		c-26.2-21.2-57.1-31.3-89.4-38.2c-27.9-5.9-56.3-10.2-82.5-22.4C84.5,288.7,65,273.3,57,246.9c-0.6-2.1-1.7-4.1-1.2-6.7
		c7.4,5.5,14.4,11.1,21.8,16.1C104.4,274,134.8,282.4,165.8,289z"/>
	<g id="Letras_3_">
		<path class="st1" d="M135.7,589.7l0.4,0.8c-1.9,1-3.9,1.8-5.9,2.4c-2.1,0.6-4.2,0.9-6.4,0.9c-3.2,0-6.1-0.6-8.6-1.8
			c-2.6-1.2-4.7-2.8-6.4-4.9c-1.7-2.1-2.9-4.5-3.6-7.3c-0.7-2.8-0.8-5.8-0.2-9c0.6-3.2,1.7-6.2,3.4-9c1.7-2.8,3.8-5.3,6.2-7.4
			c2.5-2.1,5.2-3.7,8.2-5c3-1.2,6.1-1.8,9.3-1.8c2.2,0,4.2,0.3,6.1,0.8c1.9,0.6,3.6,1.4,5.2,2.4c-0.1,0.1-0.2,0.3-0.3,0.4
			c-0.1,0.1-0.2,0.3-0.3,0.4c-1.5-1-3.1-1.8-4.9-2.3c-1.8-0.5-3.8-0.8-5.8-0.8c-3,0-6,0.6-8.9,1.8c-2.9,1.2-5.5,2.8-7.9,4.8
			c-2.4,2-4.4,4.4-6,7.1c-1.6,2.7-2.7,5.6-3.3,8.6c-0.5,3.1-0.5,5.9,0.2,8.6c0.7,2.7,1.8,5,3.5,7c1.6,2,3.7,3.6,6.1,4.7
			c2.5,1.2,5.2,1.7,8.2,1.7c2.1,0,4.1-0.3,6.1-0.8C131.9,591.5,133.8,590.7,135.7,589.7z"/>
		<path class="st1" d="M150.1,548.1h0.9l-8,45.1h-0.9L150.1,548.1z"/>
		<path class="st1" d="M179.5,551.5c-0.1,0.1-0.2,0.3-0.3,0.4c-0.1,0.1-0.2,0.3-0.3,0.4c-0.3-0.3-0.7-0.7-1.3-1.1
			c-0.5-0.4-1.1-0.8-1.8-1.2c-0.7-0.4-1.5-0.7-2.4-0.9c-0.9-0.2-1.9-0.4-3-0.4c-1.7,0-3.2,0.3-4.6,0.9c-1.4,0.6-2.6,1.4-3.6,2.3
			c-1,1-1.8,2.1-2.4,3.3c-0.6,1.2-1.1,2.5-1.3,3.8c-0.2,1.4-0.2,2.5,0,3.5c0.2,0.9,0.7,1.8,1.3,2.5c0.6,0.7,1.4,1.3,2.4,1.8
			c1,0.5,2.1,1,3.4,1.4c1.3,0.4,2.7,0.9,4.4,1.4c1.6,0.5,3.2,1.2,4.6,2.2c1.4,0.9,2.5,2.2,3.3,3.6c0.8,1.5,1,3.4,0.6,5.8
			c-0.3,1.9-1,3.6-2,5.2c-1,1.5-2.2,2.9-3.6,4c-1.4,1.1-3,1.9-4.8,2.5c-1.8,0.6-3.6,0.9-5.5,0.9c-1.7,0-3.2-0.2-4.5-0.6
			c-1.3-0.4-2.4-0.9-3.3-1.5c-0.9-0.6-1.7-1.2-2.3-1.8c-0.6-0.6-1.1-1.1-1.4-1.5l0.9-0.8c0.5,0.6,1.1,1.3,1.7,1.9
			c0.7,0.6,1.4,1.2,2.3,1.7c0.9,0.5,1.8,0.9,2.9,1.3c1.1,0.3,2.3,0.5,3.6,0.5c1.7,0,3.3-0.3,5-0.8c1.6-0.5,3.1-1.3,4.5-2.3
			c1.4-1,2.5-2.2,3.5-3.6c1-1.4,1.6-3,1.9-4.7c0.4-2.1,0.2-3.8-0.4-5.1c-0.6-1.4-1.5-2.5-2.7-3.4c-1.2-0.9-2.5-1.6-4-2.2
			c-1.5-0.5-3-1-4.4-1.5c-0.8-0.2-1.7-0.5-2.7-0.9c-1-0.4-2-0.9-3-1.6c-0.9-0.7-1.7-1.6-2.3-2.7c-0.6-1.1-0.8-2.5-0.6-4.2
			c0.2-1.4,0.6-2.8,1.2-4.3c0.6-1.4,1.5-2.7,2.6-3.9c1.1-1.2,2.4-2.1,4-2.8c1.6-0.7,3.4-1.1,5.4-1.1c1.6,0,3.2,0.3,4.7,0.8
			C176.8,549.2,178.2,550.1,179.5,551.5z"/>
		<path class="st1" d="M229.2,548.1l-8.3,47.2c-4.9-7.6-9.9-15.2-14.7-22.6c-4.9-7.5-9.8-15-14.7-22.6c-0.2-0.3-0.3-0.6-0.5-0.8
			c-0.1-0.3-0.3-0.5-0.5-0.8c0,0.3,0,0.7-0.1,1c0,0.3-0.1,0.7-0.1,1l-7.5,42.8h-0.9l8.3-47.2c4.9,7.6,9.8,15.2,14.7,22.7
			c4.9,7.5,9.8,15.1,14.7,22.7c0.2,0.3,0.3,0.6,0.5,0.8c0.1,0.3,0.3,0.5,0.5,0.8c0-0.3,0-0.7,0.1-1c0-0.3,0.1-0.7,0.1-1l7.6-43
			H229.2z"/>
		<path class="st1" d="M229.1,593.2l8-45.1h26.1L263,549h-25.2l-3.7,21h22.7l-0.2,0.9h-22.7l-3.8,21.4h26.1l-0.2,0.9H229.1z"/>
		<path class="st2" d="M284.6,549.4h4.1l23.1,32.1h0.3l5.6-32.1h3.2l-7.9,44.9h-1.7l-24.9-35.7h-0.3l-6.1,34.6h-3.3L284.6,549.4z"/>
		<path class="st2" d="M357.7,549.4l-0.5,2.8h-23.1l-2.8,15.7h15.5l-0.5,2.8h-15.5l-3.5,19.7h23.1l-0.5,2.8h-30.5l7.7-43.9H357.7z"
			/>
		<path class="st2" d="M385.6,551.5c-2.6,0-5.2,0.5-7.6,1.4c-2.4,0.9-4.6,2.3-6.5,4c-1.9,1.7-3.6,3.9-4.9,6.3
			c-1.3,2.5-2.3,5.3-2.8,8.3c-0.5,3.1-0.5,5.9,0,8.3c0.5,2.5,1.5,4.6,2.9,6.3c1.4,1.7,3.2,3.1,5.3,4c2.1,0.9,4.5,1.4,7.2,1.4
			c1.9,0,3.7-0.3,5.4-0.8c1.6-0.5,3.2-1.3,4.5-2.2l2.7-15.4h-8.3l0.5-2.6h15.6l-3.4,19.3c-1.4,0.7-2.8,1.3-4.2,1.8
			c-1.4,0.5-2.9,1-4.4,1.3c-1.6,0.4-3.3,0.6-5.1,0.8c-1.8,0.2-3.9,0.3-6.2,0.3c-2.4,0-4.7-0.3-6.8-0.8c-2.1-0.5-4-1.3-5.7-2.3
			c-1.7-1-3.2-2.2-4.4-3.6c-1.3-1.4-2.3-2.9-3-4.6c-0.7-1.7-1.2-3.5-1.5-5.4c-0.2-1.9-0.2-3.9,0.2-6c0.4-2.1,1-4.1,1.9-6
			c0.9-1.9,2-3.8,3.3-5.5c1.3-1.7,2.8-3.3,4.5-4.7c1.7-1.4,3.6-2.7,5.6-3.7c2-1,4.1-1.8,6.4-2.4c2.3-0.6,4.6-0.9,7-0.9
			c2.3,0,4.4,0.3,6.3,1c1.9,0.6,3.5,1.5,4.9,2.5c1.4,1,2.7,2.2,3.7,3.6c1,1.4,1.8,2.8,2.5,4.3l-3.6,2.1c-1.2-3.5-2.8-6.1-4.8-7.8
			C391,552.3,388.6,551.5,385.6,551.5z"/>
		<path class="st2" d="M408.9,549.4h15.2c2.6,0,4.9,0.3,6.8,0.9c1.9,0.6,3.4,1.4,4.5,2.4c1.1,1,1.9,2.2,2.4,3.6
			c0.4,1.4,0.5,2.9,0.2,4.6c-0.2,1.4-0.7,2.6-1.4,3.8c-0.7,1.2-1.6,2.3-2.8,3.2c-1.1,1-2.4,1.8-3.8,2.5c-1.4,0.7-3,1.2-4.7,1.6
			l12.2,21.3h-8.5l-11.6-20.6h-5.2l-3.6,20.6h-7.4L408.9,549.4z M412.5,570.4h4.3c1.7,0,3.2-0.2,4.7-0.7c1.5-0.4,2.8-1.1,4-1.9
			c1.2-0.8,2.2-1.8,2.9-2.9c0.8-1.2,1.3-2.4,1.6-3.9c0.2-1.3,0.2-2.5-0.1-3.6c-0.3-1.1-0.7-2-1.4-2.8c-0.7-0.8-1.5-1.4-2.6-1.8
			c-1.1-0.4-2.3-0.7-3.6-0.7h-6.5L412.5,570.4z"/>
		<path class="st2" d="M460.2,594.3c-2.3,0-4.4-0.3-6.4-0.8c-2-0.6-3.8-1.3-5.4-2.4c-1.6-1-3-2.2-4.2-3.6c-1.2-1.4-2.2-3-2.9-4.7
			c-0.7-1.7-1.2-3.6-1.4-5.5c-0.2-2-0.1-4,0.2-6.2c0.4-2.1,1-4.1,1.9-6c0.9-1.9,2-3.7,3.3-5.4c1.3-1.7,2.8-3.2,4.6-4.6
			c1.7-1.4,3.6-2.6,5.5-3.5c2-1,4-1.7,6.2-2.3c2.2-0.5,4.4-0.8,6.7-0.8c2.3,0,4.4,0.3,6.4,0.8c2,0.5,3.8,1.3,5.4,2.3
			c1.6,1,3,2.2,4.3,3.5c1.2,1.4,2.2,2.9,2.9,4.6c0.7,1.7,1.2,3.5,1.4,5.4c0.2,1.9,0.2,3.9-0.2,6c-0.4,2.1-1,4.2-1.9,6.2
			c-0.9,2-2,3.8-3.4,5.6c-1.3,1.7-2.9,3.3-4.6,4.7c-1.7,1.4-3.6,2.6-5.5,3.6c-2,1-4,1.8-6.2,2.4C464.7,594,462.5,594.3,460.2,594.3z
			 M460.6,592.1c2.5,0,4.8-0.5,6.9-1.6c2.1-1,4-2.5,5.6-4.4c1.6-1.9,3-4.1,4.2-6.7c1.1-2.6,2-5.4,2.5-8.4c0.5-3,0.7-5.8,0.4-8.3
			c-0.2-2.5-0.9-4.7-1.8-6.5c-1-1.8-2.4-3.2-4.1-4.2c-1.8-1-3.9-1.5-6.4-1.5c-2.6,0-4.9,0.5-7,1.5c-2.1,1-4,2.4-5.6,4.2
			c-1.6,1.8-3,4-4.1,6.5c-1.1,2.5-1.9,5.3-2.4,8.3c-0.5,3-0.7,5.9-0.5,8.4c0.2,2.6,0.8,4.8,1.8,6.7c1,1.9,2.3,3.3,4.1,4.4
			C455.9,591.5,458.1,592.1,460.6,592.1z"/>
	</g>
</g>
</svg>
